<?xml version="1.0" encoding="UTF-8" standalone="no"?>
<!-- Generator: Adobe Illustrator 16.0.0, SVG Export Plug-In . SVG Version: 6.00 Build 0)  -->

<svg
   xmlns:dc="http://purl.org/dc/elements/1.1/"
   xmlns:cc="http://creativecommons.org/ns#"
   xmlns:rdf="http://www.w3.org/1999/02/22-rdf-syntax-ns#"
   xmlns:svg="http://www.w3.org/2000/svg"
   xmlns="http://www.w3.org/2000/svg"
   xmlns:sodipodi="http://sodipodi.sourceforge.net/DTD/sodipodi-0.dtd"
   xmlns:inkscape="http://www.inkscape.org/namespaces/inkscape"
   version="1.1"
   id="Layer_1"
   x="0px"
   y="0px"
   width="512px"
   height="512px"
   viewBox="0 0 512 512"
   enable-background="new 0 0 512 512"
   xml:space="preserve"
   inkscape:version="0.91 r13725"
   sodipodi:docname="lock-open_orange.svg"
   inkscape:export-filename="/home/saedelaere/Projekte/content/labpowerqt/icons/lock-open_newgreen.png"
   inkscape:export-xdpi="2.8125"
   inkscape:export-ydpi="2.8125"><metadata
     id="metadata5635"><rdf:RDF><cc:Work
         rdf:about=""><dc:format>image/svg+xml</dc:format><dc:type
           rdf:resource="http://purl.org/dc/dcmitype/StillImage" /><dc:title></dc:title></cc:Work></rdf:RDF></metadata><defs
     id="defs5633" /><sodipodi:namedview
     pagecolor="#ffffff"
     bordercolor="#666666"
     borderopacity="1"
     objecttolerance="10"
     gridtolerance="10"
     guidetolerance="10"
     inkscape:pageopacity="0"
     inkscape:pageshadow="2"
     inkscape:window-width="1920"
     inkscape:window-height="1021"
     id="namedview5631"
     showgrid="false"
     inkscape:zoom="0.4609375"
     inkscape:cx="-417.62712"
     inkscape:cy="251.66102"
     inkscape:window-x="0"
     inkscape:window-y="27"
     inkscape:window-maximized="1"
     inkscape:current-layer="Layer_1" /><path
     d="M448,224h-64H256v-96C256,57.438,198.594,0,128,0C57.422,0,0,57.438,0,128v96h64v-96c0-35.313,28.703-64,64-64  c35.281,0,64,28.688,64,64v96c-35.344,0-64,28.656-64,64v160c0,35.344,28.656,64,64,64h256c35.344,0,64-28.656,64-64V288  C512,252.656,483.344,224,448,224z M336,379.094V432c0,8.844-7.156,16-16,16s-16-7.156-16-16v-52.906  c-9.375-5.563-16-15.375-16-27.094c0-17.688,14.313-32,32-32s32,14.313,32,32C352,363.719,345.375,373.531,336,379.094z"
     id="path5629"
     style="fill:#ff7e00;fill-opacity:1" /></svg>