<?xml version="1.0" encoding="UTF-8" standalone="no"?>
<svg
   xmlns:dc="http://purl.org/dc/elements/1.1/"
   xmlns:cc="http://creativecommons.org/ns#"
   xmlns:rdf="http://www.w3.org/1999/02/22-rdf-syntax-ns#"
   xmlns:svg="http://www.w3.org/2000/svg"
   xmlns="http://www.w3.org/2000/svg"
   xmlns:sodipodi="http://sodipodi.sourceforge.net/DTD/sodipodi-0.dtd"
   xmlns:inkscape="http://www.inkscape.org/namespaces/inkscape"
   version="1.1"
   x="0px"
   y="0px"
   viewBox="0 0 390.264 390.264"
   enable-background="new 0 0 513.354 517"
   xml:space="preserve"
   id="svg2"
   inkscape:version="0.91 r13725"
   sodipodi:docname="noun_40976_cc.svg"
   width="390.26401"
   height="390.26401"
   inkscape:export-filename="/home/saedelaere/Projekte/content/labpowerqt/icons/graph.png"
   inkscape:export-xdpi="3.6898098"
   inkscape:export-ydpi="3.6898098"><metadata
     id="metadata16"><rdf:RDF><cc:Work
         rdf:about=""><dc:format>image/svg+xml</dc:format><dc:type
           rdf:resource="http://purl.org/dc/dcmitype/StillImage" /><dc:title></dc:title></cc:Work></rdf:RDF></metadata><defs
     id="defs14" /><sodipodi:namedview
     pagecolor="#ffffff"
     bordercolor="#666666"
     borderopacity="1"
     objecttolerance="10"
     gridtolerance="10"
     guidetolerance="10"
     inkscape:pageopacity="0"
     inkscape:pageshadow="2"
     inkscape:window-width="1920"
     inkscape:window-height="1024"
     id="namedview12"
     showgrid="false"
     fit-margin-top="0"
     fit-margin-left="0"
     fit-margin-right="0"
     fit-margin-bottom="0"
     inkscape:zoom="0.7303675"
     inkscape:cx="-89.20273"
     inkscape:cy="-87.069976"
     inkscape:window-x="0"
     inkscape:window-y="27"
     inkscape:window-maximized="1"
     inkscape:current-layer="svg2" /><g
     id="g4"
     transform="translate(-48.877,-39.714992)"><path
       d="m 388.98,88.648 c -27.658,0 -50.162,22.483 -50.162,50.12 0,9.757 2.814,19.184 8.04,27.249 l -65.451,125.085 c -2.308,0.319 -4.59,0.813 -6.819,1.476 L 226.53,244.881 c 0.206,-1.748 0.311,-3.508 0.311,-5.268 0,-24.902 -20.415,-45.16 -45.507,-45.16 -25.064,0 -45.453,20.258 -45.453,45.16 0,3.052 0.305,6.067 0.91,9.023 l -56.029,55.138 c -17.728,0.857 -31.885,15.405 -31.885,33.165 0,18.295 15.045,33.178 33.537,33.178 17.869,0 32.519,-13.896 33.486,-31.34 l 55.874,-54.979 c 3.124,0.668 6.319,1.003 9.56,1.003 4.443,0 8.873,-0.653 13.113,-1.919 l 48.031,47.68 c -0.204,1.734 -0.309,3.48 -0.309,5.227 0,24.918 20.416,45.19 45.509,45.19 25.077,0 45.479,-20.272 45.479,-45.19 0,-8.385 -2.34,-16.514 -6.695,-23.559 l 64.532,-123.34 c 26.728,-1.061 48.147,-23.139 48.147,-50.122 0.002,-27.636 -22.5,-50.12 -50.161,-50.12 z m 0,88.691 c -1.646,0 -3.267,-0.115 -4.859,-0.315 l -71.309,136.293 c 5.439,5.949 8.754,13.832 8.754,22.473 0,18.564 -15.184,33.598 -33.888,33.598 -18.759,0 -33.915,-15.033 -33.915,-33.598 0,-3.152 0.451,-6.201 1.273,-9.094 L 197.218,269.3 c -4.74,2.492 -10.144,3.91 -15.885,3.91 -4.534,0 -8.852,-0.887 -12.801,-2.484 l -64.373,63.344 c 0.128,0.939 0.199,1.896 0.199,2.871 0,11.9 -9.836,21.586 -21.945,21.586 -12.135,0 -21.945,-9.686 -21.945,-21.586 0,-11.943 9.811,-21.611 21.945,-21.611 0.996,0 1.974,0.07 2.936,0.197 l 64.518,-63.493 c -1.539,-3.842 -2.393,-8.03 -2.393,-12.419 0,-18.537 15.13,-33.568 33.859,-33.568 18.731,0 33.914,15.031 33.914,33.568 0,3.168 -0.452,6.23 -1.279,9.135 l 57.842,57.407 c 4.733,-2.481 10.13,-3.893 15.868,-3.893 0.321,0 0.64,0.015 0.96,0.024 l 71.919,-137.447 c -6.3,-6.863 -10.146,-16.016 -10.146,-26.071 0,-21.308 17.26,-38.527 38.568,-38.527 21.31,0 38.57,17.22 38.57,38.527 0.002,21.307 -17.259,38.569 -38.569,38.569 z"
       id="path6"
       inkscape:connector-curvature="0" /></g></svg>