<svg xmlns="http://www.w3.org/2000/svg" xmlns:xlink="http://www.w3.org/1999/xlink" version="1.1" viewBox="0 0 24 30" x="0px" y="0px"><path d="M11.5,18C15.5,18 18.96,15.78 20.74,12.5C18.96,9.22 15.5,7 11.5,7C7.5,7 4.04,9.22 2.26,12.5C4.04,15.78 7.5,18 11.5,18M11.5,6C16.06,6 20,8.65 21.86,12.5C20,16.35 16.06,19 11.5,19C6.94,19 3,16.35 1.14,12.5C3,8.65 6.94,6 11.5,6M11.5,8C14,8 16,10 16,12.5C16,15 14,17 11.5,17C9,17 7,15 7,12.5C7,10 9,8 11.5,8M11.5,9C9.57,9 8,10.57 8,12.5C8,14.43 9.57,16 11.5,16C13.43,16 15,14.43 15,12.5C15,10.57 13.43,9 11.5,9Z"/><text x="0" y="39" fill="#000000" font-size="5px" font-weight="bold" font-family="'Helvetica Neue', Helvetica, Arial-Unicode, Arial, Sans-serif">Created by Austin Andrews</text><text x="0" y="44" fill="#000000" font-size="5px" font-weight="bold" font-family="'Helvetica Neue', Helvetica, Arial-Unicode, Arial, Sans-serif">from the Noun Project</text></svg>