<svg xmlns:dc="http://purl.org/dc/elements/1.1/" xmlns:cc="http://creativecommons.org/ns#" xmlns:rdf="http://www.w3.org/1999/02/22-rdf-syntax-ns#" xmlns:svg="http://www.w3.org/2000/svg" xmlns="http://www.w3.org/2000/svg" xmlns:sodipodi="http://sodipodi.sourceforge.net/DTD/sodipodi-0.dtd" xmlns:inkscape="http://www.inkscape.org/namespaces/inkscape" version="1.1" x="0px" y="0px" viewBox="0 0 135.41896 169.2737" enable-background="new 0 0 60 100" xml:space="preserve"><path d="M 68.589358,96.528086 86.974134,78.143309 c 1.561999,-1.561998 1.561999,-4.094855 0,-5.656854 -1.561999,-1.561999 -4.094855,-1.561999 -5.656854,0 L 62.932504,90.871232 44.547727,72.486455 62.932504,54.101679 c 1.561999,-1.561999 1.561999,-4.094856 0,-5.656854 -1.561999,-1.561999 -4.094856,-1.561999 -5.656854,0 L 38.890873,66.829601 32.526912,60.46564 21.213204,71.779348 C 10.950256,82.042296 9.6788776,97.889973 17.396241,109.53744 L 0,126.93368 8.4852813,135.41896 25.881523,118.02272 c 11.647463,7.71736 27.49514,6.44598 37.758088,-3.81697 l 11.313708,-11.3137 -6.363961,-6.363964 z"/><path d="m 102.89204,74.953321 11.31372,-11.313712 c 10.26295,-10.262948 11.53433,-26.110625 3.81696,-37.758088 L 135.41896,8.48528 126.93368,0 109.53744,17.396239 C 97.889972,9.67888 82.042292,10.95025 71.779342,21.213202 l -11.3137,11.313708 c 41.502088,41.502087 0.33001,0.330023 42.426398,42.426411 z"/><text x="0" y="150.41896" fill="#000000" font-size="5px" font-weight="bold" font-family="'Helvetica Neue', Helvetica, Arial-Unicode, Arial, Sans-serif">Created by Florian Huber</text><text x="0" y="155.41896" fill="#000000" font-size="5px" font-weight="bold" font-family="'Helvetica Neue', Helvetica, Arial-Unicode, Arial, Sans-serif">from the Noun Project</text></svg>