<svg xmlns="http://www.w3.org/2000/svg" xmlns:xlink="http://www.w3.org/1999/xlink" version="1.1" x="0px" y="0px" viewBox="0 0 513.354 646.25" enable-background="new 0 0 513.354 517" xml:space="preserve"><g><path d="M388.98,88.648c-27.658,0-50.162,22.483-50.162,50.12c0,9.757,2.814,19.184,8.04,27.249l-65.451,125.085   c-2.308,0.319-4.59,0.813-6.819,1.476l-48.058-47.697c0.206-1.748,0.311-3.508,0.311-5.268c0-24.902-20.415-45.16-45.507-45.16   c-25.064,0-45.453,20.258-45.453,45.16c0,3.052,0.305,6.067,0.91,9.023l-56.029,55.138c-17.728,0.857-31.885,15.405-31.885,33.165   c0,18.295,15.045,33.178,33.537,33.178c17.869,0,32.519-13.896,33.486-31.34l55.874-54.979c3.124,0.668,6.319,1.003,9.56,1.003   c4.443,0,8.873-0.653,13.113-1.919l48.031,47.68c-0.204,1.734-0.309,3.48-0.309,5.227c0,24.918,20.416,45.19,45.509,45.19   c25.077,0,45.479-20.272,45.479-45.19c0-8.385-2.34-16.514-6.695-23.559l64.532-123.34c26.728-1.061,48.147-23.139,48.147-50.122   C439.143,111.132,416.641,88.648,388.98,88.648z M388.98,177.339c-1.646,0-3.267-0.115-4.859-0.315l-71.309,136.293   c5.439,5.949,8.754,13.832,8.754,22.473c0,18.564-15.184,33.598-33.888,33.598c-18.759,0-33.915-15.033-33.915-33.598   c0-3.152,0.451-6.201,1.273-9.094l-57.818-57.396c-4.74,2.492-10.144,3.91-15.885,3.91c-4.534,0-8.852-0.887-12.801-2.484   l-64.373,63.344c0.128,0.939,0.199,1.896,0.199,2.871c0,11.9-9.836,21.586-21.945,21.586c-12.135,0-21.945-9.686-21.945-21.586   c0-11.943,9.811-21.611,21.945-21.611c0.996,0,1.974,0.07,2.936,0.197l64.518-63.493c-1.539-3.842-2.393-8.03-2.393-12.419   c0-18.537,15.13-33.568,33.859-33.568c18.731,0,33.914,15.031,33.914,33.568c0,3.168-0.452,6.23-1.279,9.135l57.842,57.407   c4.733-2.481,10.13-3.893,15.868-3.893c0.321,0,0.64,0.015,0.96,0.024l71.919-137.447c-6.3-6.863-10.146-16.016-10.146-26.071   c0-21.308,17.26-38.527,38.568-38.527c21.31,0,38.57,17.22,38.57,38.527C427.551,160.077,410.29,177.339,388.98,177.339z"/></g><text x="0" y="532" fill="#000000" font-size="5px" font-weight="bold" font-family="'Helvetica Neue', Helvetica, Arial-Unicode, Arial, Sans-serif">Created by Leonides Delgado</text><text x="0" y="537" fill="#000000" font-size="5px" font-weight="bold" font-family="'Helvetica Neue', Helvetica, Arial-Unicode, Arial, Sans-serif">from the Noun Project</text></svg>