<?xml version="1.0" encoding="UTF-8" standalone="no"?>
<svg
   xmlns:dc="http://purl.org/dc/elements/1.1/"
   xmlns:cc="http://creativecommons.org/ns#"
   xmlns:rdf="http://www.w3.org/1999/02/22-rdf-syntax-ns#"
   xmlns:svg="http://www.w3.org/2000/svg"
   xmlns="http://www.w3.org/2000/svg"
   xmlns:sodipodi="http://sodipodi.sourceforge.net/DTD/sodipodi-0.dtd"
   xmlns:inkscape="http://www.inkscape.org/namespaces/inkscape"
   version="1.1"
   x="0px"
   y="0px"
   viewBox="0 0 68.310996 68.310997"
   enable-background="new 0 0 90 90"
   xml:space="preserve"
   id="svg2"
   inkscape:version="0.91 r13725"
   sodipodi:docname="noun_39536_cc.svg"
   width="68.310997"
   height="68.310997"
   inkscape:export-filename="/home/saedelaere/Projekte/content/labpowerqt/icons/application32.png"
   inkscape:export-xdpi="42.160122"
   inkscape:export-ydpi="42.160122"><metadata
     id="metadata16"><rdf:RDF><cc:Work
         rdf:about=""><dc:format>image/svg+xml</dc:format><dc:type
           rdf:resource="http://purl.org/dc/dcmitype/StillImage" /><dc:title></dc:title></cc:Work></rdf:RDF></metadata><defs
     id="defs14" /><sodipodi:namedview
     pagecolor="#ffffff"
     bordercolor="#666666"
     borderopacity="1"
     objecttolerance="10"
     gridtolerance="10"
     guidetolerance="10"
     inkscape:pageopacity="0"
     inkscape:pageshadow="2"
     inkscape:window-width="1920"
     inkscape:window-height="1024"
     id="namedview12"
     showgrid="false"
     fit-margin-top="0"
     fit-margin-left="0"
     fit-margin-right="0"
     fit-margin-bottom="0"
     inkscape:zoom="2.0977778"
     inkscape:cx="24.15"
     inkscape:cy="19.306"
     inkscape:window-x="0"
     inkscape:window-y="27"
     inkscape:window-maximized="1"
     inkscape:current-layer="svg2" /><g
     id="g4"
     transform="translate(-7.0258475,-6.7682991)"><path
       d="m 61.747,24.599 -3.355,1.351 -18.425,7.42 14.178,-23.661 1.477,-2.464 -2.873,0 -14.266,0 -1.102,0 -0.409,1.024 -14.747,36.903 -1.375,3.442 3.465,-1.316 18.802,-7.141 -3.438,17.051 -1.989,-1.919 -3.776,-3.643 1.051,5.141 3.206,15.676 0.632,3.093 2.153,-2.309 12.342,-13.237 5.078,-5.446 -6.888,2.831 -1.671,0.687 10.716,-30.075 1.214,-3.408 z M 47.058,60.975 52.107,58.9 39.765,72.136 36.56,56.46 40.687,60.442 45.295,37.588 23.737,45.776 38.483,8.873 52.748,8.873 36.079,36.69 59,27.46 47.058,60.975 Z"
       id="path6"
       inkscape:connector-curvature="0" /></g></svg>