<?xml version="1.0" encoding="UTF-8" standalone="no"?>
<svg
   xmlns:dc="http://purl.org/dc/elements/1.1/"
   xmlns:cc="http://creativecommons.org/ns#"
   xmlns:rdf="http://www.w3.org/1999/02/22-rdf-syntax-ns#"
   xmlns:svg="http://www.w3.org/2000/svg"
   xmlns="http://www.w3.org/2000/svg"
   xmlns:sodipodi="http://sodipodi.sourceforge.net/DTD/sodipodi-0.dtd"
   xmlns:inkscape="http://www.inkscape.org/namespaces/inkscape"
   version="1.1"
   x="0px"
   y="0px"
   viewBox="0 0 39.887749 39.887748"
   enable-background="new 0 0 50 50"
   xml:space="preserve"
   id="svg2"
   inkscape:version="0.91 r13725"
   sodipodi:docname="noun_131285_cc.svg"
   width="39.887749"
   height="39.887749"
   inkscape:export-filename="/home/saedelaere/Projekte/content/labpowerqt/icons/checkmark_16.png"
   inkscape:export-xdpi="36.101311"
   inkscape:export-ydpi="36.101311"><metadata
     id="metadata16"><rdf:RDF><cc:Work
         rdf:about=""><dc:format>image/svg+xml</dc:format><dc:type
           rdf:resource="http://purl.org/dc/dcmitype/StillImage" /><dc:title /></cc:Work></rdf:RDF></metadata><defs
     id="defs14" /><sodipodi:namedview
     pagecolor="#ffffff"
     bordercolor="#666666"
     borderopacity="1"
     objecttolerance="10"
     gridtolerance="10"
     guidetolerance="10"
     inkscape:pageopacity="0"
     inkscape:pageshadow="2"
     inkscape:window-width="1920"
     inkscape:window-height="1024"
     id="namedview12"
     showgrid="false"
     fit-margin-top="0"
     fit-margin-left="0"
     fit-margin-right="0"
     fit-margin-bottom="0"
     inkscape:zoom="3.776"
     inkscape:cx="-50.927656"
     inkscape:cy="8.469"
     inkscape:window-x="0"
     inkscape:window-y="27"
     inkscape:window-maximized="1"
     inkscape:current-layer="svg2" /><path
     d="m 38.471751,5.9927484 c -0.904,-0.916 -2.104,-1.664 -3.374,-1.664 -0.005,0 -0.01,0 -0.015,0 -1.246,0 -2.417,0.723 -3.299,1.604 l -18.8,19.0390006 -4.8590001,-4.86 c -0.894,-0.894 -2.086,-1.386 -3.361,-1.386 -1.262,0 -2.458,0.488 -3.382,1.39 -1.84399998,1.866 -1.84199998,4.888 0.004,6.733 l 8.0029996,8.002 c 0.086,0.086 0.172,0.168 0.235,0.213 0.116,0.102 0.234,0.201 0.328,0.271 0.033,0.027 0.068,0.055 0.1040005,0.079 0.874,0.72 1.927,1.074 2.975,1.074 1.188,0 2.371,-0.487 3.276,-1.394 l 22.219,-22.246 c 0.878,-0.881 1.362,-2.113 1.362,-3.3630002 0,-1.262 -0.505,-2.58 -1.416,-3.4920004 z m -1.362,5.5010006 -22.218,22.216 c -0.95,0.95 -2.441,1.032 -3.556,0.168 -0.026,-0.022 -0.083,-0.097 -0.084,-0.097 -0.001,-0.002 -8.4510001,-8.378 -8.4510001,-8.378 -1.071,-1.071 -1.069,-2.834 -0.011,-3.907 1.071,-1.045 2.893,-1.064 3.92,-0.036 l 6.2740001,6.218 20.214,-20.3320002 c 0.504,-0.502 1.173,-1.0180004 1.885,-1.0180004 0.003,0 0.006,0 0.009,0 0.733,0 1.43,0.5350004 1.961,1.0740004 0.538,0.537 0.835,1.474 0.835,2.201 0,0.7180002 -0.277,1.3890002 -0.778,1.8910002 z"
     id="path4"
     inkscape:connector-curvature="0" /><line
     x1="10.540751"
     y1="33.132751"
     x2="11.488751"
     y2="33.987755"
     id="line6"
     style="fill:none" /></svg>