<?xml version="1.0" encoding="UTF-8" standalone="no"?>
<svg
   xmlns:dc="http://purl.org/dc/elements/1.1/"
   xmlns:cc="http://creativecommons.org/ns#"
   xmlns:rdf="http://www.w3.org/1999/02/22-rdf-syntax-ns#"
   xmlns:svg="http://www.w3.org/2000/svg"
   xmlns="http://www.w3.org/2000/svg"
   xmlns:sodipodi="http://sodipodi.sourceforge.net/DTD/sodipodi-0.dtd"
   xmlns:inkscape="http://www.inkscape.org/namespaces/inkscape"
   version="1.1"
   x="0px"
   y="0px"
   viewBox="0 0 63.577 63.577"
   enable-background="new 0 0 100 100"
   xml:space="preserve"
   id="svg2"
   inkscape:version="0.91 r13725"
   sodipodi:docname="noun_123853_cc.svg"
   width="63.577"
   height="63.577"
   inkscape:export-filename="/home/saedelaere/Projekte/content/labpowerqt/icons/trash16.png"
   inkscape:export-xdpi="22.6497"
   inkscape:export-ydpi="22.6497"><metadata
     id="metadata34"><rdf:RDF><cc:Work
         rdf:about=""><dc:format>image/svg+xml</dc:format><dc:type
           rdf:resource="http://purl.org/dc/dcmitype/StillImage" /><dc:title></dc:title></cc:Work></rdf:RDF></metadata><defs
     id="defs32" /><sodipodi:namedview
     pagecolor="#ffffff"
     bordercolor="#666666"
     borderopacity="1"
     objecttolerance="10"
     gridtolerance="10"
     guidetolerance="10"
     inkscape:pageopacity="0"
     inkscape:pageshadow="2"
     inkscape:window-width="1920"
     inkscape:window-height="1024"
     id="namedview30"
     showgrid="false"
     fit-margin-top="0"
     fit-margin-left="0"
     fit-margin-right="0"
     fit-margin-bottom="0"
     inkscape:zoom="1.888"
     inkscape:cx="20.613"
     inkscape:cy="11.986"
     inkscape:window-x="0"
     inkscape:window-y="27"
     inkscape:window-maximized="1"
     inkscape:current-layer="svg2" /><path
     d="m 50.848881,21.543662 -9.473,0 0,-4.91 c 0,-0.829 -0.672,-1.5 -1.5,-1.5 l -16.282,0 c -0.829,0 -1.5,0.671 -1.5,1.5 l 0,4.91 -9.471,0 c -0.829,0 -1.5,0.671 -1.5,1.5 l 0,6.41 c 0,0.829 0.671,1.5 1.5,1.5 l 1.33,0 0,31.653 c 0,0.828 0.671,1.5 1.5,1.5 l 32.566,0 c 0.828,0 1.5,-0.672 1.5,-1.5 l 0,-31.653 1.33,0 c 0.828,0 1.5,-0.671 1.5,-1.5 l 0,-6.41 c 0,-0.828 -0.672,-1.5 -1.5,-1.5 z m -25.755,-3.41 13.283,0 0,3.41 -13.283,0 0,-3.41 z m -10.971,6.41 35.226,0 0,3.41 -35.226,0 0,-3.41 z m 32.396,36.563 -29.566,0 0,-30.153 5.141,0 0,20.16 c 0,0.827 0.671,1.5 1.5,1.5 0.829,0 1.5,-0.673 1.5,-1.5 l 0,-20.16 5.142,0 0,20.16 c 0,0.827 0.671,1.5 1.5,1.5 0.828,0 1.5,-0.673 1.5,-1.5 l 0,-20.16 5.143,0 0,20.16 c 0,0.827 0.672,1.5 1.5,1.5 0.828,0 1.5,-0.673 1.5,-1.5 l 0,-20.16 5.142,0 -0.002,30.153 0,0 z"
     id="path4"
     inkscape:connector-curvature="0" /><g
     id="g6"
     transform="translate(-18.264119,-10.379338)"><path
       d="m 41.858,19.326 c -0.829,0 -1.5,-0.671 -1.5,-1.5 l 0,-5.417 c 0,-0.829 0.671,-1.5 1.5,-1.5 0.829,0 1.5,0.671 1.5,1.5 l 0,5.417 c 0,0.828 -0.671,1.5 -1.5,1.5 z"
       id="path8"
       inkscape:connector-curvature="0" /></g><g
     id="g10"
     transform="translate(-18.264119,-10.379338)"><path
       d="m 33.717,26.721 c -0.829,0 -1.5,-0.671 -1.5,-1.5 l 0,-5.417 c 0,-0.829 0.671,-1.5 1.5,-1.5 0.829,0 1.5,0.671 1.5,1.5 l 0,5.417 c 0,0.829 -0.672,1.5 -1.5,1.5 z"
       id="path12"
       inkscape:connector-curvature="0" /></g><g
     id="g14"
     transform="translate(-18.264119,-10.379338)"><path
       d="m 50,22.513 c -0.829,0 -1.5,-0.671 -1.5,-1.5 l 0,-5.417 c 0,-0.829 0.671,-1.5 1.5,-1.5 0.828,0 1.5,0.671 1.5,1.5 l 0,5.417 c 0,0.829 -0.672,1.5 -1.5,1.5 z"
       id="path16"
       inkscape:connector-curvature="0" /></g><g
     id="g18"
     transform="translate(-18.264119,-10.379338)"><path
       d="m 58.142,19.326 c -0.828,0 -1.5,-0.671 -1.5,-1.5 l 0,-5.417 c 0,-0.829 0.672,-1.5 1.5,-1.5 0.828,0 1.5,0.671 1.5,1.5 l 0,5.417 c 0,0.828 -0.672,1.5 -1.5,1.5 z"
       id="path20"
       inkscape:connector-curvature="0" /></g><g
     id="g22"
     transform="translate(-18.264119,-10.379338)"><path
       d="m 66.283,26.721 c -0.828,0 -1.5,-0.671 -1.5,-1.5 l 0,-5.416 c 0,-0.829 0.672,-1.5 1.5,-1.5 0.828,0 1.5,0.671 1.5,1.5 l 0,5.416 c 0,0.829 -0.672,1.5 -1.5,1.5 z"
       id="path24"
       inkscape:connector-curvature="0" /></g></svg>