<?xml version="1.0" encoding="UTF-8" standalone="no"?>
<svg
   xmlns:dc="http://purl.org/dc/elements/1.1/"
   xmlns:cc="http://creativecommons.org/ns#"
   xmlns:rdf="http://www.w3.org/1999/02/22-rdf-syntax-ns#"
   xmlns:svg="http://www.w3.org/2000/svg"
   xmlns="http://www.w3.org/2000/svg"
   xmlns:sodipodi="http://sodipodi.sourceforge.net/DTD/sodipodi-0.dtd"
   xmlns:inkscape="http://www.inkscape.org/namespaces/inkscape"
   version="1.1"
   x="0px"
   y="0px"
   viewBox="0 0 87.906273 87.906273"
   id="svg2"
   inkscape:version="0.91 r13725"
   sodipodi:docname="noun_62224_cc.svg"
   width="87.906273"
   height="87.906273"
   inkscape:export-filename="/home/saedelaere/Projekte/content/labpowerqt/icons/gear.png"
   inkscape:export-xdpi="16.381084"
   inkscape:export-ydpi="16.381084">
  <metadata
     id="metadata16">
    <rdf:RDF>
      <cc:Work
         rdf:about="">
        <dc:format>image/svg+xml</dc:format>
        <dc:type
           rdf:resource="http://purl.org/dc/dcmitype/StillImage" />
        <dc:title></dc:title>
      </cc:Work>
    </rdf:RDF>
  </metadata>
  <defs
     id="defs14" />
  <sodipodi:namedview
     pagecolor="#ffffff"
     bordercolor="#666666"
     borderopacity="1"
     objecttolerance="10"
     gridtolerance="10"
     guidetolerance="10"
     inkscape:pageopacity="0"
     inkscape:pageshadow="2"
     inkscape:window-width="1920"
     inkscape:window-height="1024"
     id="namedview12"
     showgrid="false"
     fit-margin-top="0"
     fit-margin-left="0"
     fit-margin-right="0"
     fit-margin-bottom="0"
     inkscape:zoom="1.888"
     inkscape:cx="41.903556"
     inkscape:cy="31.453107"
     inkscape:window-x="0"
     inkscape:window-y="27"
     inkscape:window-maximized="1"
     inkscape:current-layer="svg2" />
  <g
     transform="translate(-5.9777999,-958.40903)"
     id="g4">
    <path
       style="color:#000000;text-indent:0;text-transform:none;direction:ltr;block-progression:tb;baseline-shift:baseline;display:inline;overflow:visible;visibility:visible;fill:#000000;fill-opacity:1;fill-rule:nonzero;stroke:none;marker:none;enable-background:accumulate"
       d="m 49.96875,958.40903 c -3.01611,0 -6.02501,0.28571 -9,0.90625 a 3.0003,3.0003 0 0 0 -2.28125,2.1875 l -1.59375,5.96875 c -3.86522,1.42596 -7.53051,3.50454 -10.84375,6.25 l -6,-1.59375 a 3.0003,3.0003 0 0 0 -3,0.90625 c -2.032906,2.27289 -3.801023,4.72596 -5.3125,7.34375 -1.513242,2.62128 -2.741132,5.40619 -3.6875,8.28125 a 3.0003,3.0003 0 0 0 0.71875,3.03125 l 4.375,4.40625 c -0.700392,4.14477 -0.700396,8.35527 0,12.49997 l -4.375,4.4062 A 3.0003,3.0003 0 0 0 8.25,1016.0653 c 0.95166,2.8963 2.207132,5.663 3.71875,8.2812 1.505097,2.6072 3.253834,5.0745 5.28125,7.3438 a 3.0003,3.0003 0 0 0 3,0.9062 l 6,-1.5938 c 3.31333,2.7449 6.9792,4.8243 10.84375,6.25 l 1.59375,5.9688 a 3.0003,3.0003 0 0 0 2.28125,2.1562 c 2.97499,0.6206 5.98389,0.9376 9,0.9376 3.0207,0 6.07579,-0.313 9.0625,-0.9376 a 3.0003,3.0003 0 0 0 2.28125,-2.1562 l 1.59375,-5.9688 c 3.86408,-1.4356 7.5126,-3.5363 10.8125,-6.2812 l 6,1.625 a 3.0003,3.0003 0 0 0 3.03125,-0.9062 c 2.02743,-2.2694 3.77616,-4.7366 5.28125,-7.3438 1.51162,-2.6181 2.76709,-5.3849 3.71875,-8.2812 a 3.0003,3.0003 0 0 0 -0.71875,-3.0626 l -4.40625,-4.4374 c 0.69284,-4.1225 0.69284,-8.3151 0,-12.43752 l 4.40625,-4.4375 A 3.0003,3.0003 0 0 0 91.75,988.65903 c -0.94638,-2.87505 -2.17427,-5.65998 -3.6875,-8.28125 -1.51148,-2.61778 -3.27959,-5.07086 -5.3125,-7.34375 a 3.0003,3.0003 0 0 0 -3.03125,-0.90625 l -6,1.625 c -3.29974,-2.74484 -6.94802,-4.84582 -10.8125,-6.28125 l -1.59375,-5.96875 a 3.0003,3.0003 0 0 0 -2.28125,-2.15625 c -2.98671,-0.62458 -6.0418,-0.9375 -9.0625,-0.9375 z m 0,6 c 2.02955,0 4.06261,0.27605 6.0625,0.59375 l 1.46875,5.375 a 3.0003,3.0003 0 0 0 1.96875,2.09375 c 4.19417,1.3295 8.19883,3.61641 11.65625,6.78125 a 3.0003,3.0003 0 0 0 2.8125,0.65625 l 5.375,-1.46875 c 1.28568,1.58199 2.54255,3.17102 3.5625,4.9375 1.00747,1.74518 1.74997,3.64171 2.46875,5.53125 l -3.96875,4 a 3.0003,3.0003 0 0 0 -0.8125,2.75 c 0.95457,4.39827 0.95456,9.00797 0,13.40627 a 3.0003,3.0003 0 0 0 0.8125,2.75 l 3.96875,4 c -0.72464,1.8938 -1.48507,3.7733 -2.5,5.5312 -1.01419,1.7568 -2.26239,3.3399 -3.53125,4.9062 l -5.375,-1.4687 a 3.0003,3.0003 0 0 0 -2.8125,0.6875 c -3.45737,3.1649 -7.46116,5.4507 -11.65625,6.7812 A 3.0003,3.0003 0 0 0 57.5,1034.3153 l -1.46875,5.375 c -2.00011,0.3177 -4.03271,0.625 -6.0625,0.625 -2.01756,0 -4.01076,-0.309 -6,-0.625 L 42.5,1034.3153 a 3.0003,3.0003 0 0 0 -1.96875,-2.0938 c -4.21086,-1.3315 -8.23569,-3.563 -11.6875,-6.7188 a 3.0003,3.0003 0 0 0 -2.78125,-0.6874 l -5.375,1.4374 c -1.268857,-1.5663 -2.517066,-3.1494 -3.53125,-4.9062 -1.014928,-1.7579 -1.775364,-3.6374 -2.5,-5.5312 l 3.9375,-3.9688 a 3.0003,3.0003 0 0 0 0.8125,-2.7812 c -0.962525,-4.4156 -0.962533,-9.0219 0,-13.43752 a 3.0003,3.0003 0 0 0 -0.8125,-2.75 l -3.9375,-3.96875 c 0.718769,-1.88954 1.461272,-3.78607 2.46875,-5.53125 1.019941,-1.76648 2.276818,-3.35551 3.5625,-4.9375 l 5.375,1.4375 a 3.0003,3.0003 0 0 0 2.78125,-0.65625 c 3.45185,-3.15576 7.47756,-5.41958 11.6875,-6.75 A 3.0003,3.0003 0 0 0 42.5,970.37778 l 1.46875,-5.375 c 1.98901,-0.31596 3.98268,-0.59375 6,-0.59375 z m 0,16.625 c -5.45798,0 -10.91359,2.10114 -15.0625,6.25 -8.30705,8.30705 -8.30705,21.84917 0,30.15627 8.30704,8.307 21.88046,8.307 30.1875,0 8.30704,-8.3071 8.30704,-21.84922 0,-30.15627 -4.1552,-4.15514 -9.66703,-6.25 -15.125,-6.25 z m 0,6 c 3.92935,0 7.8679,1.46169 10.875,4.46875 6.01754,6.01755 6.01754,15.66992 0,21.68752 -6.01754,6.0175 -15.66996,6.0175 -21.6875,0 -6.01755,-6.0176 -6.01755,-15.66997 0,-21.68752 3.01337,-3.01334 6.88314,-4.46875 10.8125,-4.46875 z"
       visibility="visible"
       display="inline"
       overflow="visible"
       id="path6"
       inkscape:connector-curvature="0" />
  </g>
</svg>
