<svg xmlns:dc="http://purl.org/dc/elements/1.1/" xmlns:cc="http://creativecommons.org/ns#" xmlns:rdf="http://www.w3.org/1999/02/22-rdf-syntax-ns#" xmlns:svg="http://www.w3.org/2000/svg" xmlns="http://www.w3.org/2000/svg" xmlns:sodipodi="http://sodipodi.sourceforge.net/DTD/sodipodi-0.dtd" xmlns:inkscape="http://www.inkscape.org/namespaces/inkscape" version="1.1" x="0px" y="0px" viewBox="0 0 111.3966 139.24575000000002" enable-background="new 0 0 60 100" xml:space="preserve"><path d="M 102.90625 0 L 85.5 17.40625 C 73.852535 9.6888911 58.01295 10.955798 47.75 21.21875 L 36.4375 32.53125 L 42.8125 38.90625 L 38.90625 42.8125 L 32.53125 36.4375 L 21.21875 47.75 C 10.955802 58.012948 9.6888867 73.852537 17.40625 85.5 L 0 102.90625 L 8.5 111.40625 L 25.875 94 C 37.522463 101.71736 53.362052 100.45045 63.625 90.1875 L 74.96875 78.875 L 68.59375 72.5 L 72.5 68.59375 L 78.875 74.96875 L 90.1875 63.625 C 100.45045 53.362052 101.71737 37.522463 94 25.875 L 111.40625 8.5 L 102.90625 0 z M 48.46875 44.5625 L 66.84375 62.9375 L 62.9375 66.84375 L 44.5625 48.46875 L 48.46875 44.5625 z "/><text x="0" y="126.3966" fill="#000000" font-size="5px" font-weight="bold" font-family="'Helvetica Neue', Helvetica, Arial-Unicode, Arial, Sans-serif">Created by Florian Huber</text><text x="0" y="131.3966" fill="#000000" font-size="5px" font-weight="bold" font-family="'Helvetica Neue', Helvetica, Arial-Unicode, Arial, Sans-serif">from the Noun Project</text></svg>