<?xml version="1.0" encoding="UTF-8" standalone="no"?>
<svg
   xmlns:dc="http://purl.org/dc/elements/1.1/"
   xmlns:cc="http://creativecommons.org/ns#"
   xmlns:rdf="http://www.w3.org/1999/02/22-rdf-syntax-ns#"
   xmlns:svg="http://www.w3.org/2000/svg"
   xmlns="http://www.w3.org/2000/svg"
   xmlns:sodipodi="http://sodipodi.sourceforge.net/DTD/sodipodi-0.dtd"
   xmlns:inkscape="http://www.inkscape.org/namespaces/inkscape"
   version="1.1"
   viewBox="0 0 96 96"
   x="0px"
   y="0px"
   id="svg2"
   inkscape:version="0.91 r13725"
   sodipodi:docname="noun_68462_cc.svg"
   width="96"
   height="96"
   inkscape:export-filename="/home/saedelaere/Projekte/content/labpowerqt/icons/csv16.png"
   inkscape:export-xdpi="15"
   inkscape:export-ydpi="15">
  <metadata
     id="metadata24">
    <rdf:RDF>
      <cc:Work
         rdf:about="">
        <dc:format>image/svg+xml</dc:format>
        <dc:type
           rdf:resource="http://purl.org/dc/dcmitype/StillImage" />
        <dc:title></dc:title>
      </cc:Work>
    </rdf:RDF>
  </metadata>
  <defs
     id="defs22" />
  <sodipodi:namedview
     pagecolor="#ffffff"
     bordercolor="#666666"
     borderopacity="1"
     objecttolerance="10"
     gridtolerance="10"
     guidetolerance="10"
     inkscape:pageopacity="0"
     inkscape:pageshadow="2"
     inkscape:window-width="1920"
     inkscape:window-height="1024"
     id="namedview20"
     showgrid="false"
     fit-margin-top="0"
     fit-margin-left="0"
     fit-margin-right="0"
     fit-margin-bottom="0"
     inkscape:zoom="1.9666667"
     inkscape:cx="42"
     inkscape:cy="36"
     inkscape:window-x="0"
     inkscape:window-y="27"
     inkscape:window-maximized="1"
     inkscape:current-layer="svg2" />
  <path
     d="m 76.101695,95.491525 -68.0000001,0 c -1.104,0 -2,-0.9 -2,-2 l 0,-69.672 c 0,-0.492 0.18,-0.964 0.508,-1.332 L 26.609695,0.15952542 c 0.38,-0.424 0.92,-0.668 1.492,-0.668 l 48,0 c 1.1,0 2,0.896 2,1.99999998 l 0,45.9999996 c 0,1.104 -0.9,2 -2,2 -1.1,0 -2,-0.896 -2,-2 l 0,-43.9999996 -45.104,0 -18.896,21.0919996 0,66.908 64,0 0,-8 c 0,-1.1 0.9,-2 2,-2 1.1,0 2,0.9 2,2 l 0,10 c 0,1.1 -0.9,2 -2,2 z"
     id="path4"
     inkscape:connector-curvature="0"
     style="fill:#000000" />
  <path
     d="m 28.101695,27.491525 -18,0 c -1.1040001,0 -2.0000001,-0.896 -2.0000001,-2 0,-1.104 0.896,-2 2.0000001,-2 l 16,0 0,-19.9999996 c 0,-1.104 0.896,-2 2,-2 1.104,0 2,0.896 2,2 l 0,21.9999996 c 0,1.104 -0.896,2 -2,2 z"
     id="path6"
     inkscape:connector-curvature="0"
     style="fill:#000000" />
  <path
     d="m 84.101695,83.491525 -48,0 c -3.308,0 -6,-2.692 -6,-6 l 0,-24 c 0,-3.308 2.692,-6 6,-6 l 48,0 c 3.308,0 6,2.692 6,6 l 0,24 c 0,3.308 -2.692,6 -6,6 z m -48,-32 c -1.104,0 -2,0.9 -2,2 l 0,24 c 0,1.1 0.896,2 2,2 l 48,0 c 1.1,0 2,-0.9 2,-2 l 0,-24 c 0,-1.1 -0.9,-2 -2,-2 l -48,0 z"
     id="path8"
     inkscape:connector-curvature="0"
     style="fill:#000000" />
  <path
     d="m 53.017695,71.055525 c 0.112,0 0.216,0.052 0.304,0.136 l 0.796,0.872 c -0.616,0.712 -1.36,1.268 -2.244,1.664 -0.876,0.404 -1.932,0.596 -3.168,0.596 -1.084,0 -2.068,-0.188 -2.948,-0.56 -0.88,-0.376 -1.632,-0.908 -2.252,-1.584 -0.624,-0.672 -1.104,-1.484 -1.448,-2.416 -0.34,-0.944 -0.512,-1.984 -0.512,-3.116 0,-1.132 0.184,-2.168 0.552,-3.112 0.368,-0.94 0.884,-1.752 1.548,-2.424 0.664,-0.676 1.46,-1.204 2.384,-1.584 0.924,-0.376 1.948,-0.564 3.068,-0.564 1.104,0 2.06,0.172 2.856,0.512 0.8,0.344 1.512,0.812 2.136,1.396 l -0.664,0.932 c -0.052,0.072 -0.104,0.124 -0.168,0.172 -0.064,0.044 -0.156,0.068 -0.272,0.068 -0.088,0 -0.188,-0.032 -0.288,-0.092 -0.096,-0.072 -0.22,-0.148 -0.36,-0.252 -0.14,-0.088 -0.304,-0.2 -0.492,-0.316 -0.188,-0.112 -0.412,-0.216 -0.672,-0.316 -0.252,-0.088 -0.56,-0.176 -0.9,-0.244 -0.344,-0.076 -0.74,-0.1 -1.184,-0.1 -0.804,0 -1.54,0.14 -2.208,0.416 -0.668,0.276 -1.244,0.668 -1.724,1.18 -0.48,0.512 -0.86,1.128 -1.128,1.868 -0.268,0.732 -0.404,1.556 -0.404,2.464 0,0.936 0.136,1.772 0.404,2.504 0.268,0.736 0.636,1.356 1.1,1.86 0.464,0.508 1.016,0.892 1.652,1.16 0.636,0.264 1.32,0.4 2.056,0.4 0.448,0 0.848,-0.024 1.208,-0.08 0.356,-0.052 0.684,-0.136 0.996,-0.252 0.304,-0.108 0.584,-0.252 0.844,-0.416 0.264,-0.172 0.528,-0.38 0.796,-0.616 0.108,-0.104 0.224,-0.156 0.336,-0.156 z"
     id="path10"
     inkscape:connector-curvature="0"
     style="fill:#000000" />
  <path
     d="m 64.485695,61.483525 c -0.064,0.1 -0.124,0.184 -0.2,0.236 -0.068,0.056 -0.16,0.084 -0.268,0.084 -0.12,0 -0.256,-0.068 -0.416,-0.18 -0.16,-0.116 -0.356,-0.248 -0.596,-0.392 -0.24,-0.144 -0.532,-0.276 -0.872,-0.404 -0.336,-0.116 -0.752,-0.176 -1.232,-0.176 -0.452,0 -0.86,0.06 -1.204,0.184 -0.352,0.124 -0.64,0.288 -0.876,0.5 -0.24,0.212 -0.416,0.456 -0.532,0.748 -0.116,0.284 -0.176,0.584 -0.176,0.916 0,0.416 0.096,0.768 0.308,1.044 0.204,0.276 0.48,0.516 0.82,0.712 0.336,0.196 0.724,0.364 1.152,0.508 0.424,0.14 0.872,0.288 1.324,0.444 0.444,0.156 0.892,0.328 1.32,0.516 0.424,0.192 0.812,0.432 1.148,0.732 0.344,0.292 0.612,0.652 0.82,1.084 0.212,0.42 0.312,0.944 0.312,1.572 0,0.656 -0.108,1.272 -0.336,1.848 -0.224,0.584 -0.552,1.084 -0.976,1.504 -0.428,0.42 -0.96,0.756 -1.584,1.008 -0.624,0.244 -1.336,0.364 -2.132,0.364 -0.968,0 -1.856,-0.176 -2.66,-0.528 -0.8,-0.352 -1.48,-0.828 -2.052,-1.428 l 0.584,-0.96 c 0.056,-0.084 0.124,-0.14 0.204,-0.196 0.084,-0.056 0.172,-0.084 0.268,-0.084 0.148,0 0.316,0.084 0.5,0.24 0.192,0.156 0.424,0.328 0.708,0.516 0.284,0.188 0.624,0.364 1.032,0.524 0.4,0.156 0.892,0.236 1.468,0.236 0.484,0 0.916,-0.072 1.288,-0.2 0.384,-0.132 0.696,-0.32 0.96,-0.572 0.264,-0.24 0.464,-0.528 0.6,-0.864 0.14,-0.332 0.216,-0.708 0.216,-1.12 0,-0.456 -0.104,-0.824 -0.312,-1.112 -0.204,-0.288 -0.476,-0.54 -0.812,-0.732 -0.336,-0.196 -0.72,-0.36 -1.148,-0.5 -0.424,-0.136 -0.868,-0.276 -1.316,-0.416 -0.452,-0.144 -0.896,-0.312 -1.328,-0.496 -0.424,-0.196 -0.812,-0.432 -1.148,-0.744 -0.336,-0.296 -0.604,-0.68 -0.812,-1.124 -0.204,-0.452 -0.312,-1.008 -0.312,-1.672 0,-0.536 0.108,-1.048 0.312,-1.544 0.208,-0.496 0.508,-0.928 0.9,-1.32 0.392,-0.384 0.876,-0.692 1.452,-0.916 0.576,-0.24 1.24,-0.344 1.984,-0.344 0.844,0 1.604,0.132 2.296,0.4 0.696,0.268 1.296,0.652 1.82,1.156 l -0.496,0.948 z"
     id="path12"
     inkscape:connector-curvature="0"
     style="fill:#000000" />
  <path
     d="m 66.165695,59.131525 1.624,0 c 0.18,0 0.328,0.044 0.44,0.132 0.112,0.088 0.196,0.212 0.252,0.344 l 4.248,10.6 c 0.096,0.236 0.184,0.496 0.26,0.776 0.084,0.276 0.164,0.572 0.24,0.872 0.064,-0.3 0.128,-0.592 0.204,-0.872 0.076,-0.28 0.16,-0.544 0.252,-0.776 l 4.232,-10.6 c 0.048,-0.116 0.128,-0.228 0.252,-0.328 0.116,-0.104 0.26,-0.156 0.436,-0.156 l 1.636,0 -6.124,15.028 -1.836,0 -6.116,-15.02 z"
     id="path14"
     inkscape:connector-curvature="0"
     style="fill:#000000" />
</svg>
