<?xml version="1.0" encoding="UTF-8" standalone="no"?>
<svg
   xmlns:dc="http://purl.org/dc/elements/1.1/"
   xmlns:cc="http://creativecommons.org/ns#"
   xmlns:rdf="http://www.w3.org/1999/02/22-rdf-syntax-ns#"
   xmlns:svg="http://www.w3.org/2000/svg"
   xmlns="http://www.w3.org/2000/svg"
   xmlns:sodipodi="http://sodipodi.sourceforge.net/DTD/sodipodi-0.dtd"
   xmlns:inkscape="http://www.inkscape.org/namespaces/inkscape"
   version="1.1"
   x="0px"
   y="0px"
   viewBox="0 0 82.099999 82.099998"
   enable-background="new 0 0 100 100"
   xml:space="preserve"
   id="svg2"
   inkscape:version="0.91 r13725"
   sodipodi:docname="noun_47265_cc.svg"
   width="82.099998"
   height="82.099998"
   inkscape:export-filename="/home/saedelaere/Projekte/content/labpowerqt/icons/magnifying_glass16.png"
   inkscape:export-xdpi="17.539587"
   inkscape:export-ydpi="17.539587"><metadata
     id="metadata30"><rdf:RDF><cc:Work
         rdf:about=""><dc:format>image/svg+xml</dc:format><dc:type
           rdf:resource="http://purl.org/dc/dcmitype/StillImage" /><dc:title /></cc:Work></rdf:RDF></metadata><defs
     id="defs28" /><sodipodi:namedview
     pagecolor="#ffffff"
     bordercolor="#666666"
     borderopacity="1"
     objecttolerance="10"
     gridtolerance="10"
     guidetolerance="10"
     inkscape:pageopacity="0"
     inkscape:pageshadow="2"
     inkscape:window-width="1920"
     inkscape:window-height="1053"
     id="namedview26"
     showgrid="false"
     fit-margin-top="0"
     fit-margin-left="0"
     fit-margin-right="0"
     fit-margin-bottom="0"
     inkscape:zoom="1.888"
     inkscape:cx="-101.37881"
     inkscape:cy="29.3"
     inkscape:window-x="0"
     inkscape:window-y="27"
     inkscape:window-maximized="1"
     inkscape:current-layer="svg2" /><g
     id="g4"
     transform="translate(-8.370339,-9.7)"><g
       id="g6"><path
         d="m 36.9,65.7 c -15.4,0 -28,-12.5 -28,-28 0,-15.4 12.5,-28 28,-28 15.4,0 28,12.5 28,28 -0.1,15.4 -12.6,28 -28,28 z m 0,-54 c -14.3,0 -26,11.6 -26,26 0,14.3 11.6,26 26,26 14.3,0 26,-11.6 26,-26 -0.1,-14.3 -11.7,-26 -26,-26 z"
         id="path8"
         inkscape:connector-curvature="0"
         style="fill:#000000" /></g><g
       id="g10"><path
         d="M 36.5,56.5 C 26.1,56.5 17.6,48 17.6,37.6 c 0,-10.4 8.5,-18.9 18.9,-18.9 10.4,0 18.9,8.5 18.9,18.9 -0.1,10.5 -8.5,18.9 -18.9,18.9 z m 0,-35.7 c -9.3,0 -16.9,7.6 -16.9,16.9 0,9.3 7.6,16.9 16.9,16.9 9.3,0 16.9,-7.6 16.9,-16.9 C 53.3,28.4 45.8,20.8 36.5,20.8 Z"
         id="path12"
         inkscape:connector-curvature="0"
         style="fill:#000000" /></g><g
       id="g14"><path
         d="m 57.3,66.1 -6.4,-6.6 7.5,-7.4 6.4,6.6 -7.5,7.4 z m -3.5,-6.5 3.6,3.7 4.6,-4.6 -3.6,-3.7 -4.6,4.6 z"
         id="path16"
         inkscape:connector-curvature="0"
         style="fill:#000000" /></g><g
       id="g18"><path
         d="m 81.1,91.8 c -1.2,0 -2.3,-0.5 -3.1,-1.3 L 56.4,69 c -0.8,-0.8 -1.3,-1.9 -1.3,-3.1 0,-1.2 0.5,-2.3 1.3,-3.1 l 5.2,-5.2 c 0.8,-0.8 1.9,-1.3 3.1,-1.3 l 0,0 c 1.2,0 2.3,0.5 3.1,1.3 l 21.5,21.5 c 0.8,0.8 1.3,1.9 1.3,3.1 0,1.2 -0.5,2.3 -1.3,3.1 l -5.2,5.2 c -0.8,0.8 -1.9,1.3 -3,1.3 z M 64.7,58.4 c -0.6,0 -1.2,0.2 -1.7,0.7 l -5.2,5.2 c -0.4,0.4 -0.7,1 -0.7,1.7 0,0.7 0.2,1.2 0.7,1.7 l 21.5,21.5 c 0.9,0.9 2.4,0.9 3.3,0 L 87.8,84 c 0.4,-0.4 0.7,-1 0.7,-1.7 0,-0.6 -0.2,-1.2 -0.7,-1.7 L 66.4,59.1 c -0.5,-0.5 -1.1,-0.7 -1.7,-0.7 z"
         id="path20"
         inkscape:connector-curvature="0"
         style="fill:#000000" /></g></g></svg>