<?xml version="1.0" encoding="UTF-8" standalone="no"?>
<svg
   xmlns:dc="http://purl.org/dc/elements/1.1/"
   xmlns:cc="http://creativecommons.org/ns#"
   xmlns:rdf="http://www.w3.org/1999/02/22-rdf-syntax-ns#"
   xmlns:svg="http://www.w3.org/2000/svg"
   xmlns="http://www.w3.org/2000/svg"
   xmlns:sodipodi="http://sodipodi.sourceforge.net/DTD/sodipodi-0.dtd"
   xmlns:inkscape="http://www.inkscape.org/namespaces/inkscape"
   version="1.1"
   x="0px"
   y="0px"
   viewBox="0 0 34.21669 34.418999"
   enable-background="new 0 0 50 50"
   xml:space="preserve"
   id="svg2"
   inkscape:version="0.91 r13725"
   sodipodi:docname="noun_131359_cc.svg"
   width="34.21669"
   height="34.418999"
   inkscape:export-filename="/home/saedelaere/Projekte/content/labpowerqt/icons/cancel_close_16.png"
   inkscape:export-xdpi="42.084724"
   inkscape:export-ydpi="42.084724"><metadata
     id="metadata16"><rdf:RDF><cc:Work
         rdf:about=""><dc:format>image/svg+xml</dc:format><dc:type
           rdf:resource="http://purl.org/dc/dcmitype/StillImage" /><dc:title></dc:title></cc:Work></rdf:RDF></metadata><defs
     id="defs14" /><sodipodi:namedview
     pagecolor="#ffffff"
     bordercolor="#666666"
     borderopacity="1"
     objecttolerance="10"
     gridtolerance="10"
     guidetolerance="10"
     inkscape:pageopacity="0"
     inkscape:pageshadow="2"
     inkscape:window-width="1920"
     inkscape:window-height="1024"
     id="namedview12"
     showgrid="false"
     fit-margin-top="0"
     fit-margin-left="0"
     fit-margin-right="0"
     fit-margin-bottom="0"
     inkscape:zoom="3.776"
     inkscape:cx="17.108625"
     inkscape:cy="9.8750005"
     inkscape:window-x="0"
     inkscape:window-y="27"
     inkscape:window-maximized="1"
     inkscape:current-layer="svg2" /><line
     x1="-21.141375"
     y1="-1.831"
     x2="-21.829374"
     y2="-2.1440003"
     id="line4" /><path
     d="m 32.683625,25.319 -8.198,-8.202 8.195,-8.1740002 c 0.988,-0.98 1.532,-2.2339998 1.532,-3.6289998 0,-1.426 -0.549,-2.632 -1.529,-3.574 -0.99,-0.989 -2.3,-1.321 -3.69,-1.321 -0.008,0 -0.016,0 -0.022,0 -1.386,0 -2.684,0.354 -3.647,1.335 l -8.19,8.0089998 L 8.8866252,1.542 c -0.958,-0.994 -2.271,-1.542 -3.695,-1.542 -1.424,0 -2.737,0.548 -3.68,1.528 -2.01399999,2.012 -2.01699999,5.311 0,7.3589998 l 8.22,8.2240002 -8.229,8.246 c -0.96499999,0.992 -1.49399999,2.318 -1.49399999,3.69 0,1.406 0.533,2.767 1.50199999,3.734 0.989,0.989 2.299,1.638 3.689,1.638 0.008,0 0.015,0 0.021,0 1.386,0 2.684,-0.648 3.647,-1.63 l 8.2509998,-8.313 8.189,8.189 c 0.956,0.992 2.269,1.539 3.696,1.539 1.394,0 2.699,-0.542 3.673,-1.52 0.987,-0.971 1.534,-2.268 1.54,-3.651 0.007,-1.4 -0.538,-2.718 -1.533,-3.714 z m -1.416,5.946 c -0.771,0.775 -1.656,0.938 -2.263,0.938 -0.622,0 -1.52,-0.161 -2.27,-0.939 l -8.919,-8.92 c -0.391,-0.391 -1.022,-0.391 -1.414,0 -0.046,0.046 -0.066,0.104 -0.103,0.155 l -8.8529998,8.875 c -0.595,0.604 -1.39,1.046 -2.237,1.046 -0.005,0 -0.01,0 -0.014,0 -0.855,0 -1.665,-0.44 -2.275,-1.052 -0.592,-0.592 -0.916,-1.499 -0.916,-2.371 0,-0.85 0.329,-1.656 0.916,-2.262 l 8.9199998,-8.92 c 0.195,-0.196 0.293,-0.453 0.293,-0.709 0,-0.256 -0.098,-0.514 -0.293,-0.709 L 2.9256252,7.48 c -1.242,-1.263 -1.245,-3.297 0.008,-4.55 0.576,-0.599 1.376,-0.929 2.252,-0.929 0.62,0 1.515,0.161 2.269,0.944 l 8.8499998,8.819 c 0.033,0.05 0.055,0.107 0.099,0.151 0.392,0.391 1.023,0.444 1.414,0.053 l 8.925,-8.819 c 0.595,-0.604 1.389,-0.73 2.236,-0.73 0.005,0 0.01,0 0.014,0 0.857,0 1.665,0.125 2.292,0.751 0.769,0.736 0.93,1.418 0.93,2.038 0,0.606 -0.163,1.492 -0.943,2.266 l -8.919,8.922 c -0.195,0.195 -0.293,0.451 -0.293,0.707 0,0.256 0.098,0.513 0.293,0.707 l 8.919,8.924 c 0.615,0.615 0.952,1.429 0.948,2.289 -0.006,0.847 -0.34,1.641 -0.952,2.242 z"
     id="path6"
     inkscape:connector-curvature="0" /></svg>