<?xml version="1.0" encoding="UTF-8" standalone="no"?>
<svg
   xmlns:dc="http://purl.org/dc/elements/1.1/"
   xmlns:cc="http://creativecommons.org/ns#"
   xmlns:rdf="http://www.w3.org/1999/02/22-rdf-syntax-ns#"
   xmlns:svg="http://www.w3.org/2000/svg"
   xmlns="http://www.w3.org/2000/svg"
   xmlns:sodipodi="http://sodipodi.sourceforge.net/DTD/sodipodi-0.dtd"
   xmlns:inkscape="http://www.inkscape.org/namespaces/inkscape"
   version="1.1"
   x="0px"
   y="0px"
   viewBox="0 0 148.68927 60.167092"
   enable-background="new 0 0 60 100"
   xml:space="preserve"
   id="svg6875"
   inkscape:version="0.91 r13725"
   sodipodi:docname="plug_out_orange.svg"
   width="148.68927"
   height="60.167091"
   inkscape:export-filename="/home/saedelaere/Projekte/content/labpowerqt/icons/plug_out_orange.png"
   inkscape:export-xdpi="17.95001"
   inkscape:export-ydpi="17.95001"><metadata
     id="metadata6889"><rdf:RDF><cc:Work
         rdf:about=""><dc:format>image/svg+xml</dc:format><dc:type
           rdf:resource="http://purl.org/dc/dcmitype/StillImage" /><dc:title></dc:title></cc:Work></rdf:RDF></metadata><defs
     id="defs6887" /><sodipodi:namedview
     pagecolor="#ffffff"
     bordercolor="#666666"
     borderopacity="1"
     objecttolerance="10"
     gridtolerance="10"
     guidetolerance="10"
     inkscape:pageopacity="0"
     inkscape:pageshadow="2"
     inkscape:window-width="1920"
     inkscape:window-height="1021"
     id="namedview6885"
     showgrid="false"
     fit-margin-top="0"
     fit-margin-left="0"
     fit-margin-right="0"
     fit-margin-bottom="0"
     inkscape:zoom="2.7883836"
     inkscape:cx="41.375283"
     inkscape:cy="45.876001"
     inkscape:window-x="0"
     inkscape:window-y="27"
     inkscape:window-maximized="1"
     inkscape:current-layer="svg6875" /><path
     style="opacity:0.98999999;fill:#ff7e00;fill-opacity:1"
     d="m 57.930111,51.083773 c 8.947127,-0.05328 17.904986,0.107161 26.845327,-0.08127 5.486352,-1.086169 2.9702,-9.400605 -2.180777,-7.918729 l -24.66455,0 0,-25.999998 c 8.947127,-0.05328 17.904986,0.107162 26.845328,-0.08127 5.486351,-1.086169 2.970199,-9.400604 -2.180778,-7.9187284 l -24.66455,-9e-7 0,-8.99999999 C 49.542001,0.39145804 40.96307,-0.82877605 32.786785,1.4909471 22.599422,4.6370354 14.501256,13.610799 12.465673,24.083778 L 0,24.083777 l 1e-6,11.746409 12.465673,0.253591 c 2.631797,14.421792 16.951794,25.141456 31.501273,23.999996 l 13.963162,0 z"
     id="path6877"
     inkscape:connector-curvature="0"
     sodipodi:nodetypes="ccccccccccccccccc" /><path
     style="opacity:0.98999999;fill:#ff7e00;fill-opacity:1"
     d="m 91.26633,60.083323 c 8.38812,-0.307679 16.96705,0.912564 25.14335,-1.407162 10.18736,-3.146087 18.28553,-12.119854 20.3211,-22.592835 l 11.95849,-0.105041 0,-11.746409 -11.95849,-0.14855 C 134.09898,9.6615297 119.77899,-1.0581448 105.2295,0.08331948 l -13.96316,5.23e-6 z"
     id="path6879"
     inkscape:connector-curvature="0"
     sodipodi:nodetypes="ccccccccc" /></svg>