<?xml version="1.0" encoding="UTF-8" standalone="no"?>
<svg
   xmlns:dc="http://purl.org/dc/elements/1.1/"
   xmlns:cc="http://creativecommons.org/ns#"
   xmlns:rdf="http://www.w3.org/1999/02/22-rdf-syntax-ns#"
   xmlns:svg="http://www.w3.org/2000/svg"
   xmlns="http://www.w3.org/2000/svg"
   xmlns:sodipodi="http://sodipodi.sourceforge.net/DTD/sodipodi-0.dtd"
   xmlns:inkscape="http://www.inkscape.org/namespaces/inkscape"
   version="1.1"
   x="0px"
   y="0px"
   viewBox="0 0 173.28752 60.000455"
   enable-background="new 0 0 60 100"
   xml:space="preserve"
   id="svg6875"
   inkscape:version="0.91 r13725"
   sodipodi:docname="plug_out_newgreen.svg"
   width="173.28752"
   height="60.000454"
   inkscape:export-filename="/home/saedelaere/Projekte/content/labpowerqt/icons/plug_out_newgreen.png"
   inkscape:export-xdpi="17.999865"
   inkscape:export-ydpi="17.999865"><metadata
     id="metadata6889"><rdf:RDF><cc:Work
         rdf:about=""><dc:format>image/svg+xml</dc:format><dc:type
           rdf:resource="http://purl.org/dc/dcmitype/StillImage" /><dc:title></dc:title></cc:Work></rdf:RDF></metadata><defs
     id="defs6887" /><sodipodi:namedview
     pagecolor="#ffffff"
     bordercolor="#666666"
     borderopacity="1"
     objecttolerance="10"
     gridtolerance="10"
     guidetolerance="10"
     inkscape:pageopacity="0"
     inkscape:pageshadow="2"
     inkscape:window-width="1920"
     inkscape:window-height="1021"
     id="namedview6885"
     showgrid="false"
     fit-margin-top="0"
     fit-margin-left="0"
     fit-margin-right="0"
     fit-margin-bottom="0"
     inkscape:zoom="3.9433699"
     inkscape:cx="56.606301"
     inkscape:cy="6.6219698"
     inkscape:window-x="0"
     inkscape:window-y="27"
     inkscape:window-maximized="1"
     inkscape:current-layer="svg6875" /><path
     d="m 70.000002,51.000454 26,0 c 2.209,0 3.999998,-1.791 3.999998,-4 0,-2.209 -1.790997,-4 -3.999998,-4 l -26,0 0,-25.999998 26,1e-6 c 2.209001,0 3.999998,-1.791001 3.999998,-4 0,-2.209 -1.790998,-4.000001 -3.999998,-4 l -26,-1e-6 0,-9 -15.999999,0 c -14.514,0 -26.619001,10.307 -29.398003,24.000003 l -24.602,-1e-6 1e-6,11.999999 24.602,1e-6 c 2.779002,13.692996 14.884004,23.999996 29.398005,23.999996 l 15.999994,0 2e-6,-9 z"
     id="path6877"
     inkscape:connector-curvature="0"
     style="fill:#7bcf06;fill-opacity:1" /><path
     d="m 103.28751,60.000004 16.00001,1e-5 c 14.51401,0 26.61901,-10.307 29.398,-24.000007 l 24.602,0 0,-12 -24.602,0 C 145.90652,10.307006 133.80152,-9.9999986e-7 119.28751,0 L 103.28752,6.0000002e-6 C 103.28752,58.692824 103.28751,0.46672 103.28751,60.000004 Z"
     id="path6879"
     inkscape:connector-curvature="0"
     style="fill:#7bcf06;fill-opacity:1" /></svg>