<?xml version="1.0" encoding="UTF-8" standalone="no"?>
<svg
   xmlns:dc="http://purl.org/dc/elements/1.1/"
   xmlns:cc="http://creativecommons.org/ns#"
   xmlns:rdf="http://www.w3.org/1999/02/22-rdf-syntax-ns#"
   xmlns:svg="http://www.w3.org/2000/svg"
   xmlns="http://www.w3.org/2000/svg"
   xmlns:sodipodi="http://sodipodi.sourceforge.net/DTD/sodipodi-0.dtd"
   xmlns:inkscape="http://www.inkscape.org/namespaces/inkscape"
   version="1.1"
   x="0px"
   y="0px"
   viewBox="0 0 145.53142 60.015693"
   enable-background="new 0 0 60 100"
   xml:space="preserve"
   id="svg6248"
   inkscape:version="0.91 r13725"
   sodipodi:docname="plug_in_newgreen.svg"
   width="145.53142"
   height="60.01569"
   inkscape:export-filename="/home/saedelaere/Projekte/content/labpowerqt/icons/plug_in_newgreen.png"
   inkscape:export-xdpi="17.995295"
   inkscape:export-ydpi="17.995295"><metadata
     id="metadata6260"><rdf:RDF><cc:Work
         rdf:about=""><dc:format>image/svg+xml</dc:format><dc:type
           rdf:resource="http://purl.org/dc/dcmitype/StillImage" /><dc:title></dc:title></cc:Work></rdf:RDF></metadata><defs
     id="defs6258" /><sodipodi:namedview
     pagecolor="#ffffff"
     bordercolor="#666666"
     borderopacity="1"
     objecttolerance="10"
     gridtolerance="10"
     guidetolerance="10"
     inkscape:pageopacity="0"
     inkscape:pageshadow="2"
     inkscape:window-width="1920"
     inkscape:window-height="1021"
     id="namedview6256"
     showgrid="false"
     fit-margin-top="0"
     fit-margin-left="0"
     fit-margin-right="0"
     fit-margin-bottom="0"
     inkscape:zoom="6.7793814"
     inkscape:cx="71.358639"
     inkscape:cy="40.488757"
     inkscape:window-x="0"
     inkscape:window-y="27"
     inkscape:window-maximized="1"
     inkscape:current-layer="svg6248" /><path
     d="m 145.53141,23.997436 -24.61615,0 C 118.13625,10.304438 106.04014,-9.9999994e-7 91.526134,0 l -15.998291,0 0,9.015611 -5.524272,0 L 70.003571,0 54.00528,0 C 39.49128,0 27.395155,10.304436 24.616155,23.997436 l -24.616155,0 0,12.020816 24.594058,-0.0221 c 2.779002,13.693 14.875123,23.99744 29.389125,23.997439 l 16.020388,0.0221 0,-9.015611 5.524272,0 0,9.015611 16.020388,-0.0221 c 14.513999,10e-7 26.610129,-10.304432 29.389119,-23.997436 l 24.59406,0.0221 0,-12.020816 z m -70.003567,-6.982679 0,25.986174 -5.524272,0 0,-25.986174 5.524272,0 z"
     id="path6250"
     inkscape:connector-curvature="0"
     style="fill:#7bcf06;fill-opacity:1" /></svg>